<?xml version="1.0" encoding="utf-8"?>
<!-- Generator: Adobe Illustrator 19.2.1, SVG Export Plug-In . SVG Version: 6.00 Build 0)  -->
<svg version="1.1" id="Layer_1" xmlns="http://www.w3.org/2000/svg" xmlns:xlink="http://www.w3.org/1999/xlink" x="0px" y="0px"
	 viewBox="0 0 512 512" style="enable-background:new 0 0 512 512;" xml:space="preserve">
<style type="text/css">
	.st0{fill:#EB2227;}
</style>
<g>
	<g>
		<path d="M262.2,319.8c-5.9,0.1-10.6,4.9-10.5,10.8c0.2,20.2,1.8,35.2,5,47.2c1.3,4.8,5.6,8,10.3,8c0.9,0,1.8-0.1,2.7-0.4
			c5.7-1.5,9.1-7.3,7.6-13c-2.7-10.2-4-23.9-4.3-42C272.9,324.5,268,319.8,262.2,319.8z"/>
		<path d="M265,230c-5.9-0.1-10.8,4.6-10.9,10.5c-0.2,12.3-0.7,25-1.2,37.4l-0.3,7.3c-0.2,5.9,4.4,10.8,10.2,11.1c0.1,0,0.3,0,0.4,0
			c5.7,0,10.4-4.5,10.6-10.2l0.3-7.3c0.5-12.5,1-25.3,1.3-37.9C275.6,234.9,270.9,230.1,265,230z"/>
		<path d="M252.9,196.7c0.5,5.5,5.2,9.7,10.6,9.7c0.3,0,0.7,0,1,0c5.9-0.5,10.2-5.7,9.6-11.6c-1.9-19.9-5.7-35.4-11.8-47.3
			c-2.7-5.3-9.1-7.3-14.4-4.6c-5.3,2.7-7.3,9.1-4.6,14.4C248.2,166.6,251.3,179.5,252.9,196.7z"/>
		<path d="M362.8,369.2c1.8,1.1,3.8,1.7,5.7,1.7c3.5,0,7-1.7,9-4.9c7.7-12,14.7-26.3,20.8-42.3c2.1-5.5-0.7-11.7-6.2-13.8
			c-5.5-2.1-11.7,0.7-13.8,6.2c-5.5,14.6-11.9,27.5-18.8,38.3C356.4,359.5,357.8,366.1,362.8,369.2z"/>
		<path d="M128.3,150.6c-11.1,10.4-20.9,23.1-29.3,38c-2.9,5.1-1.1,11.6,4,14.5c1.7,0.9,3.5,1.4,5.3,1.4c3.7,0,7.3-1.9,9.3-5.4
			c7.4-13,15.9-24,25.4-33c4.3-4,4.5-10.8,0.5-15.1C139.4,146.8,132.6,146.6,128.3,150.6z"/>
		<path d="M482.9,43.1L333.6,0.4c-1.9-0.6-4-0.5-5.8,0l0,0L181.3,42.2L34.9,0.4c-3.2-0.9-6.7-0.3-9.4,1.7s-4.2,5.2-4.2,8.5v448
			c0,4.8,3.2,8.9,7.7,10.3l149.3,42.7h0.1c0.9,0.3,1.9,0.4,2.9,0.4s2-0.1,2.9-0.4l146.4-41.8l146.4,41.8c1,0.3,2,0.4,2.9,0.4
			c2.3,0,4.6-0.7,6.4-2.2c2.7-2,4.2-5.2,4.2-8.5v-448C490.6,48.6,487.5,44.4,482.9,43.1z M170.7,487.2l-128-36.6V24.8l128,36.6v63.1
			c-0.3,0.1-0.5,0.2-0.8,0.3c-5.5,2-8.4,8.1-6.4,13.7c1.2,3.4,4,5.7,7.2,6.6V487.2z M320,390.6L320,390.6c-6.8,2.7-13.8,4-21.3,4
			c-0.7,0-1.4,0-2.1-0.1c-5.9-0.5-11,3.9-11.5,9.8c-0.5,5.9,3.9,11,9.8,11.5c1.2,0.1,2.5,0.1,3.7,0.1c7.3,0,14.5-1,21.3-2.9v37.5
			l-128,36.6V140.7c6.8-1.3,14-2,21.3-2c1.2,0,2.4,0,3.5,0.1c5.9,0.4,11-4,11.4-9.8c0.4-5.9-4-11-9.8-11.4c-1.7-0.1-3.4-0.2-5.1-0.2
			c-7.3,0-14.4,0.6-21.3,1.7V61.4l128-36.6V390.6z M469.3,487.2l-128-36.6v-47c0.9-0.6,1.9-1.2,2.8-1.8c4.9-3.3,6.2-9.9,2.8-14.8
			c-1.4-2.1-3.4-3.5-5.6-4.2v-358l128,36.6V487.2z"/>
		<path class="st0" d="M390.2,256l-13.8,13.8c-4.2,4.2-4.2,10.9,0,15.1c2.1,2.1,4.8,3.1,7.5,3.1c2.7,0,5.5-1,7.5-3.1l13.8-13.8
			l13.8,13.8c2.1,2.1,4.8,3.1,7.5,3.1c2.8,0,5.5-1,7.6-3.1c4.2-4.2,4.2-10.9,0-15.1L420.4,256l13.8-13.8c4.2-4.2,4.2-10.9,0-15.1
			c-4.2-4.2-10.9-4.2-15.1,0l-13.8,13.8l-13.8-13.8c-4.2-4.2-10.9-4.2-15.1,0c-4.2,4.2-4.2,10.9,0,15.1L390.2,256z"/>
		<path class="st0" d="M85.3,224c-17.6,0-32,14.4-32,32c0,17.6,14.4,32,32,32c17.6,0,32-14.4,32-32C117.3,238.4,103,224,85.3,224z
			 M85.3,266.7c-5.9,0-10.7-4.8-10.7-10.7c0-5.9,4.8-10.7,10.7-10.7c5.9,0,10.7,4.8,10.7,10.7C96,261.9,91.2,266.7,85.3,266.7z"/>
	</g>
</g>
</svg>
