<svg id="Layer_1" data-name="Layer 1" xmlns="http://www.w3.org/2000/svg" viewBox="0 0 626 626"><defs><style>.cls-1{fill:#fff;}.cls-2{fill:#eb2227;}</style></defs><title>Bitten</title><path class="cls-1" d="M84,545V-6H710q0,138,0,276c-0.39-.91-0.86-1.79-1.17-2.72q-13.66-41.5-27.27-83c-2.3-7-6.51-12.1-13.42-15.13-5.93-2.61-11.49-6.06-17.4-8.72C633.81,152.79,618.42,142,600,137.32c-17.87-4.54-34.37-1.81-48.75,9-12.34,9.24-23.2,20.45-35,30.5C511,181.35,505.58,187,499.2,189.1c-22.32,7.19-45.09,13-67.67,19.37-5.61,1.58-11.23,3.14-16.78,4.91-7.66,2.44-12.17,9.67-10.76,16.93,1.46,7.52,7.32,12,15.67,11.59A76,76,0,0,0,430,240.48c27.66-5.18,55.34-10.3,82.95-15.75a41.69,41.69,0,0,0,12.27-5c4.55-2.61,8.66-6,13.87-9.67l10.59,77.16c-2.66,0-4.46.05-6.26,0-22.32-.75-44.64-1.38-66.94-2.35-8.73-.38-14.87,3.16-19.81,10.11Q428,335.2,399.1,375.27c-5.9,8.2-5.18,18.08,1.85,23.78,6.48,5.25,16.41,4,22.74-3.29q27.92-32.27,55.51-64.83c2.49-2.94,4.88-4.25,8.92-3.79,27.31,3.1,54.65,5.92,82,8.87a33,33,0,0,1,4.11,1c-5.58,11.13-10.7,21.77-16.19,32.21-4.33,8.23-4.22,16,.23,24.23,6.82,12.58,13.19,25.41,19.75,38.13,13.11,25.44,26.14,50.93,39.38,76.31a16.44,16.44,0,0,0,21.8,7.41c7-3.34,10.3-12.66,7.05-20.64-4.7-11.56-9.64-23-14.54-34.5q-15.59-36.5-31.29-73a8.69,8.69,0,0,1,.66-8.8c12.11-20.09,23.64-40.55,36.21-60.35,8-12.52,10.36-25.82,8.76-40-2.22-19.69-5.08-39.31-7.68-59Q637,209.09,635.66,199l1.22-1.25c4.08,2.42,10.23,3.86,11.9,7.41,11.53,24.52,22.21,49.46,33,74.33a14.79,14.79,0,0,0,16.95,8.8c5.92-1.27,8.5-5.83,11.3-10.32V620H84q0-34,0-68c3.31,7.33,9.41,10.06,17,11.13,18.63,2.63,37.21,5.65,55.8,8.51,23.7,3.65,47.39,7.35,71.1,10.92,15.24,2.29,24.09-6.81,21.62-22.06-1-6.41-2.18-12.8-3.24-19.2-2-12.44-4.06-24.88-6.15-37.66l78.72-18.24c-1.7,5.56-3.19,10-4.37,14.42-1.68,6.36-.78,12,4.2,17,17.34,17.24,34.47,34.69,51.75,52,5.33,5.34,13.48,5.78,18.55,1.23s5.29-12.3.32-18.48c-12.41-15.43-24.81-30.87-37.38-46.17-2-2.44-2.25-4.33-1-7.14,3.15-7,5.95-14.11,8.92-21.16,2.27-5.4,4.6-10.78,6.9-16.17l1.31,0.11c-1.37,13.64,1,26.15,9.94,36.84s20.54,16.2,34.34,16.84c19.48,0.91,39.14-13.07,44.6-31.4,6.32-21.22-1.51-43-19.4-53.49-11.92-7-24.5-8.87-37.93-4.68s-22.46,13.41-29.08,25.57a102.86,102.86,0,0,1-.4-11.23,39.49,39.49,0,0,0-9.79-26.59c-11.71-13.7-26.75-17.32-43.83-13.55-17.88,4-35.68,8.23-53.51,12.39-15.23,3.55-30.36,7.64-45.71,10.52-9.48,1.78-15.95,6.2-19.4,15-7,17.82-14,35.64-20.67,53.56-1.11,3-2.42,3.79-5.4,3.54-9.29-.8-18.61-1.32-27.91-2-9.8-.74-19.59-1.59-29.38-2.32-6.34-.47-11.63,1.54-14.55,7.48-4.33,8.82.38,17.64,10.66,19.9,13.5,3,27.05,5.67,40.58,8.48,8.8,1.83,17.64,3.51,26.4,5.5,9.56,2.17,18.8,3.28,26.23-6.55l5.08,20c-2.35,0-3.83.12-5.28,0-33-3.09-66-6-99-9.44C95.48,534.4,88.28,536.15,84,545ZM500,83.86c0.29,29.64,23.22,52.32,52.72,52.76,28.73,0.43,53-24.09,53-52.75A53.12,53.12,0,0,0,552.52,31,52.54,52.54,0,0,0,500,83.86ZM345.4,336.45l-21.11-27.93-0.95.51,1.83,28.45-26.71,7c3,2.67,5.16,4.72,7.46,6.59,10.34,8.44,10.33,8.4.57,17.84-3.11,3-6.09,6.15-9.13,9.24l0.65,1.79c12.65,0,25.29,0,37.94-.07,1.13,0,2.26-1,3.39-1.51L338.78,376H304.92c5.05-5.24,8.87-9.63,13.16-13.49,2.72-2.45,2.26-3.8-.26-5.81-4-3.15-7.69-6.57-12.32-10.58,7.12-1.87,13-3.62,19-4.91,3.5-.75,4.56-2.22,4-5.82-0.76-5.09-.86-10.28-1.25-15.42l1.29-.25L346.18,343,357.73,317l1.08,0.44,6.13,26.79,23.7-6.19c-2.16,8.44-4.11,15.8-5.88,23.2-0.23,1,.43,2.18.68,3.28,0.82-.81,2.12-1.48,2.4-2.44,1.91-6.72,3.62-13.5,5.35-20.27,0.67-2.64,1.21-5.31,2-8.71l-25.75,7.24-7.64-33.84-1.15-.14Zm94,219c-2.2.7-4,.87-5.24,1.76a37.87,37.87,0,0,0-4.66,4.57c1.59,1.38,3,3.57,4.81,4,15.8,3.72,30.85,4.2,41.32-11.48,1.3-1.95,2.65-3.85,4-5.78-2.22-1.26-4.41-3.52-6.68-3.61a208.58,208.58,0,0,0-24.89.31c-4.9.39-9.65,2.3-12.23,7.53ZM431,537.61c-7.48-1.94-11.32-.25-12.39,5.59C423.26,542.57,429,545.05,431,537.61Zm41.18-21.88,1-2-12-5.84-0.56,1.11C464.69,510.84,467.28,515.55,472.16,515.73Z" transform="translate(-84 6)"/><path d="M710,278c-2.8,4.49-5.37,9.05-11.3,10.32a14.79,14.79,0,0,1-16.95-8.8c-10.77-24.88-21.45-49.81-33-74.33-1.67-3.55-7.82-5-11.9-7.41L635.66,199q1.35,10.07,2.69,20.13c2.6,19.65,5.46,39.26,7.68,59,1.6,14.18-.81,27.47-8.76,40-12.58,19.79-24.1,40.26-36.21,60.35a8.69,8.69,0,0,0-.66,8.8q15.75,36.44,31.29,73c4.9,11.48,9.84,22.94,14.54,34.5,3.25,8-.1,17.3-7.05,20.64a16.44,16.44,0,0,1-21.8-7.41c-13.24-25.38-26.27-50.86-39.38-76.31-6.56-12.73-12.93-25.55-19.75-38.13-4.45-8.21-4.55-16-.23-24.23,5.49-10.45,10.62-21.08,16.19-32.21a33,33,0,0,0-4.11-1c-27.33-2.95-54.66-5.77-82-8.87-4-.46-6.43.85-8.92,3.79q-27.61,32.54-55.51,64.83c-6.34,7.32-16.27,8.54-22.74,3.29-7-5.7-7.75-15.58-1.85-23.78q28.85-40.13,57.59-80.33c4.94-6.94,11.08-10.49,19.81-10.11,22.31,1,44.63,1.6,66.94,2.35,1.8,0.06,3.61,0,6.26,0L539.11,210c-5.2,3.68-9.31,7.06-13.87,9.67a41.69,41.69,0,0,1-12.27,5c-27.61,5.45-55.28,10.57-82.95,15.75a76,76,0,0,1-10.37,1.43c-8.35.39-14.21-4.07-15.67-11.59-1.41-7.27,3.1-14.49,10.76-16.93,5.55-1.77,11.17-3.33,16.78-4.91,22.59-6.36,45.35-12.17,67.67-19.37,6.38-2.06,11.76-7.75,17.13-12.34,11.76-10,22.62-21.26,35-30.5,14.38-10.77,30.88-13.49,48.75-9,18.38,4.67,33.78,15.47,50.71,23.09,5.91,2.66,11.47,6.12,17.4,8.72,6.91,3,11.12,8.11,13.42,15.13q13.59,41.52,27.27,83c0.31,0.93.77,1.82,1.17,2.72v8Z" transform="translate(-84 6)"/><path d="M84,545c4.28-8.85,11.48-10.6,20.7-9.65,33,3.4,66,6.35,99,9.44,1.45,0.14,2.93,0,5.28,0l-5.08-20c-7.43,9.83-16.66,8.72-26.23,6.55-8.77-2-17.6-3.67-26.4-5.5-13.53-2.81-27.09-5.51-40.58-8.48-10.28-2.26-15-11.08-10.66-19.9,2.92-5.94,8.21-8,14.55-7.48,9.8,0.73,19.59,1.59,29.38,2.32,9.3,0.7,18.62,1.21,27.91,2,3,0.26,4.29-.57,5.4-3.54,6.71-17.92,13.7-35.73,20.67-53.56,3.46-8.85,9.92-13.26,19.4-15,15.35-2.88,30.48-7,45.71-10.52,17.83-4.16,35.63-8.44,53.51-12.39,17.08-3.77,32.12-.15,43.83,13.55a39.49,39.49,0,0,1,9.79,26.59,102.86,102.86,0,0,0,.4,11.23c6.62-12.16,15.6-21.36,29.08-25.57s26-2.31,37.93,4.68c17.89,10.48,25.72,32.27,19.4,53.49-5.46,18.33-25.13,32.31-44.6,31.4C398.57,514,387,508.56,378,497.83s-11.31-23.2-9.94-36.84l-1.31-.11c-2.3,5.39-4.63,10.77-6.9,16.17-3,7.05-5.77,14.19-8.92,21.16-1.27,2.81-1,4.69,1,7.14,12.58,15.3,25,30.73,37.38,46.17,5,6.18,4.77,13.91-.32,18.48s-13.21,4.11-18.55-1.23c-17.28-17.31-34.41-34.76-51.75-52-5-5-5.88-10.6-4.2-17,1.18-4.47,2.67-8.86,4.37-14.42l-78.72,18.24c2.08,12.78,4.1,25.22,6.15,37.66,1.05,6.41,2.2,12.8,3.24,19.2,2.47,15.25-6.39,24.35-21.62,22.06-23.71-3.57-47.4-7.27-71.1-10.92-18.6-2.86-37.17-5.88-55.8-8.51-7.61-1.07-13.71-3.8-17-11.13v-7Z" transform="translate(-84 6)"/><path d="M500,83.86A52.54,52.54,0,0,1,552.52,31a53.12,53.12,0,0,1,53.2,52.85c0,28.66-24.24,53.18-53,52.75C523.24,136.18,500.32,113.5,500,83.86Z" transform="translate(-84 6)"/><path class="cls-2" d="M345.4,336.45l13.22-30.11,1.15,0.14,7.64,33.84,25.75-7.24c-0.77,3.4-1.3,6.07-2,8.71-1.72,6.77-3.44,13.55-5.35,20.27-0.27,1-1.57,1.64-2.4,2.44-0.25-1.1-.92-2.3-0.68-3.28,1.77-7.4,3.71-14.76,5.88-23.2l-23.7,6.19-6.13-26.79-1.08-.44L346.18,343l-17.65-23.37-1.29.25c0.38,5.15.49,10.33,1.25,15.42,0.54,3.6-.53,5.06-4,5.82-6,1.29-11.85,3-19,4.91,4.64,4,8.37,7.43,12.32,10.58,2.52,2,3,3.36.26,5.81-4.29,3.86-8.1,8.25-13.16,13.49h33.86l0.55,2.36c-1.13.53-2.26,1.5-3.39,1.51-12.65.11-25.29,0.07-37.94,0.07l-0.65-1.79c3-3.08,6-6.23,9.13-9.24,9.77-9.44,9.77-9.4-.57-17.84-2.29-1.87-4.44-3.92-7.46-6.59l26.71-7L323.34,309l0.95-.51Z" transform="translate(-84 6)"/><path class="cls-2" d="M439.35,555.46l-3.58-2.7c2.58-5.23,7.33-7.14,12.23-7.53a208.58,208.58,0,0,1,24.89-.31c2.27,0.09,4.45,2.35,6.68,3.61-1.33,1.93-2.68,3.83-4,5.78-10.47,15.68-25.52,15.2-41.32,11.48-1.82-.43-3.22-2.62-4.81-4a37.87,37.87,0,0,1,4.66-4.57C435.38,556.32,437.15,556.15,439.35,555.46Z" transform="translate(-84 6)"/><path class="cls-2" d="M431,537.61c-2,7.44-7.72,5-12.39,5.59C419.66,537.36,423.5,535.67,431,537.61Z" transform="translate(-84 6)"/><path class="cls-2" d="M472.16,515.73c-4.89-.17-7.47-4.88-11.48-6.78l0.56-1.11,12,5.84Z" transform="translate(-84 6)"/></svg>