<svg id="Layer_1" data-name="Layer 1" xmlns="http://www.w3.org/2000/svg" viewBox="0 0 626 626"><defs><style>.cls-1{fill:#fff;}.cls-2{fill:#eb2227;}</style></defs><title>CommonSense</title><path class="cls-1" d="M280,620H84Q84,307,84-6H490a18,18,0,0,1-2.83.88,223,223,0,0,0-68,20.62C401.43,24.25,397.7,41,410.5,56.05A63.51,63.51,0,0,0,435.93,74c3.26,1.3,4.93,2.9,5.67,6.91a105.43,105.43,0,0,0,6.67,20.84c1.32,3.17.84,4.67-1.54,6.67-6.77,5.7-9.48,13-6.32,21.43,2.38,6.39,8.45,9.22,14.14,12,10,4.81,20.93,7.68,29,16.09,2.48,2.58,6.27,1.94,9-.86s1.73-5.55-.38-8.05a24.93,24.93,0,0,0-4.7-4.42c-4-2.74-8.08-5.24-10.93-7.07,3.6-4.08,7.56-7.56,10.1-11.87a7.08,7.08,0,0,1,4.86-3.78c5.27-1.66,11.59-2.9,15.1-6.58,4.75-5,10-5.67,15.87-6.36,10.84-1.27,20.4-7,17.82-21.19-0.54-3,.86-3.89,3.44-4.9a84.36,84.36,0,0,0,14.77-7.1c13.07-8.39,16.54-22.77,8.29-34.35-5.41-7.59-13.46-11.24-22.5-12.54-4.3-.62-6.18-2.07-5.91-6.94C539,10.26,533.89,2.53,523.18-1.9,519.23-3.53,515.06-4.65,511-6H710V620H291a4.1,4.1,0,0,1,1.14-.9c15.22-4.53,21.22-16.65,21.15-31.14-0.29-62.48-.12-125-0.11-187.45,0-1.33.11-2.68,0-4-0.3-3.17.9-4.54,4.25-4.38,4.66,0.22,9.33.05,14,.06,6.58,0,6.59,0,6.59,6.46q0,94.73,0,189.45a63,63,0,0,0,.28,8c1.86,14.51,14,23.51,28.44,21.26,15.18-2.36,21.78-10.52,21.88-27.14q0.79-133.45,1.56-266.9c0-1.75-.14-3.51-0.23-5.39-1.94,0-3.25,0-4.57,0-17.8-.29-35.62-0.17-53.39-1-17-.79-29.29-9.19-35.64-25.26-1.66-4.2-2.38-8.78-3.64-13.62a37.29,37.29,0,0,1-4.5,3.73c-8.11,4.75-16.05,9.89-24.57,13.78-3.58,1.63-4.68,3-4.68,6.63,0,43-.1,86-0.14,129q-0.06,79.48-.08,159c0,7.75,1,15.37,6.71,20.76C269.54,614.71,275.09,617,280,620Zm80.43-430.77C374.57,200.49,388.57,211.36,396,228c2.32,5.24,3.05,11.66,2.77,17.46-0.47,9.48-3.7,12.05-13.21,12.9A111.54,111.54,0,0,1,372,259c-15.48-.5-31-1.4-46.43-1.81-8-.21-13.74,4.24-16.17,11.68a25,25,0,0,0,22.15,33.05c9,0.66,18,1.39,26.94,1.6,17.36,0.42,34.7.11,51.21-6.35,8.63-3.38,16.71-7.78,21.8-15.87,10.57-16.8,12.41-35.23,7-53.83-9.25-31.76-30.82-53.42-59.85-67.94-7.12-3.56-15.11-5.41-21.52-7.63-2.3,8.13-3.44,15.59-6.46,22.18-9.84,21.47-20.38,42.62-30.62,63.91-0.62,1.29-1,2.7-1.5,4l65.15,2.32a23,23,0,0,0-6.23-18.53c-6.19-6.92-13.1-13.2-19.72-19.73-4.63-4.57-4.84-7.41-.84-12.54C357.87,192.37,358.82,191.22,360.43,189.23Zm-82.52-32.4c-5.07,2.33-10.31,4.66-15.48,7.13-16.49,7.88-28.09,20.05-34.45,37.5-8,21.87-6.31,43.52,0,65.24a19.53,19.53,0,0,0,11.32,12.7c10.36,4.46,20.63,4.46,30.56-1.79a81,81,0,0,0,28-29.29c7.29-13,13.84-26.52,20.48-39.92,7.09-14.31,13.92-28.75,20.83-43.15,2.61-5.44,3.18-11.2-.26-16.25-5.53-8.12-13.78-11.93-23.51-11.87-8.59.05-12.88,6.4-16.15,13-11.81,24-23.31,48.25-34.94,72.39-2.48,5.15-5,10.28-7.4,15.2-6-1.45-6.48-3.92-4.64-8.89C261,205.2,269.23,181.32,277.91,156.83ZM326,32c-26-.12-47.95,21.41-47.71,47.55,0.24,26.6,20.89,47.23,47.09,47.49A47.52,47.52,0,1,0,326,32Z" transform="translate(-84 6)"/><path d="M280,620c-4.91-3-10.46-5.29-14.56-9.15-5.75-5.4-6.73-13-6.71-20.76q0.14-79.48.08-159c0-43,.17-86,0.14-129,0-3.68,1.1-5,4.68-6.63,8.51-3.89,16.46-9,24.57-13.78a37.29,37.29,0,0,0,4.5-3.73c1.26,4.84,2,9.42,3.64,13.62,6.36,16.07,18.67,24.47,35.64,25.26,17.77,0.83,35.59.71,53.39,1,1.32,0,2.63,0,4.57,0,0.08,1.88.24,3.63,0.23,5.39q-0.76,133.45-1.56,266.9c-0.1,16.61-6.69,24.77-21.88,27.14-14.47,2.25-26.58-6.75-28.44-21.26a63,63,0,0,1-.28-8q0-94.73,0-189.45c0-6.45,0-6.45-6.59-6.46-4.67,0-9.34.16-14-.06-3.35-.16-4.54,1.21-4.25,4.38,0.12,1.32,0,2.66,0,4,0,62.48-.18,125,0.11,187.45,0.07,14.49-5.93,26.6-21.15,31.14a4.1,4.1,0,0,0-1.14.9H280Z" transform="translate(-84 6)"/><path class="cls-2" d="M511-6c4.06,1.35,8.23,2.47,12.18,4.1C533.89,2.53,539,10.26,538.39,21.85c-0.28,4.87,1.6,6.32,5.91,6.94,9,1.3,17.09,4.95,22.5,12.54,8.25,11.58,4.77,26-8.29,34.35a84.36,84.36,0,0,1-14.77,7.1c-2.58,1-4,1.94-3.44,4.9,2.58,14.18-7,19.92-17.82,21.19-5.87.69-11.11,1.37-15.87,6.36-3.51,3.68-9.82,4.92-15.1,6.58a7.08,7.08,0,0,0-4.86,3.78c-2.54,4.31-6.51,7.79-10.1,11.87,2.85,1.83,7,4.33,10.93,7.07a24.93,24.93,0,0,1,4.7,4.42c2.12,2.5,3,5.32.38,8.05s-6.48,3.44-9,.86c-8.1-8.42-19-11.28-29-16.09-5.69-2.74-11.76-5.57-14.14-12-3.16-8.48-.45-15.73,6.32-21.43,2.37-2,2.86-3.5,1.54-6.67a105.43,105.43,0,0,1-6.67-20.84c-0.75-4-2.41-5.6-5.67-6.91A63.51,63.51,0,0,1,410.5,56.05c-12.8-15.09-9.07-31.8,8.66-40.55a223,223,0,0,1,68-20.62A18,18,0,0,0,490-6h21Zm13.68,32.78c1.47-9.73-1.42-15.82-10.28-18a53.34,53.34,0,0,0-20.63-1.24c-14.59,2.26-29.23,5-43.36,9.22-10.36,3.09-20.29,8.21-29.74,13.6-7.36,4.2-7.51,9.81-2.28,16.22,5.75,7,13.52,11.06,21.45,15,3.86,1.94,5.58,1.68,7.44-2.51C455,41.77,469.37,34,487.91,36.45c1.87,0.25,4.25.33,5.72-.59C503.08,30,513.5,27.65,524.68,26.78ZM508.61,43.23a6.53,6.53,0,0,0,.92,1.34c9.93,6.59,18.88,14.14,24.72,24.84,0.41,0.75,2.71,1.24,3.64.81a103.92,103.92,0,0,0,13.66-7.15c4.12-2.71,9-5.94,7.7-11.74-1.16-5.23-6.37-7-11-8.28C535.17,39.37,522.05,39.6,508.61,43.23Zm20.25,44.56-1.32-1.4c-23.89,2.41-47.3-1.59-71.33-4.81,0.55,2.45,1.12,5.07,2.75,6.26,5.61,4.11,11.64,6.45,19.08,4.68a60.23,60.23,0,0,1,16.84-1.28,26.94,26.94,0,0,1,11.25,3.41c5.24,2.9,14.61,3.33,19.09-.53C527,92.62,527.68,89.94,528.86,87.79ZM484.5,72.23L485.39,71c-2-2.54-3.53-6.43-6.1-7.34-6.13-2.17-15.22.56-18.55,4.74Zm-28.58,49.36c3.62,4.76,9.47,5.2,15,1.3C466,119.86,461.39,120.79,455.92,121.59Z" transform="translate(-84 6)"/><path d="M360.43,189.23c-1.6,2-2.56,3.14-3.47,4.31-4,5.13-3.79,8,.84,12.54,6.62,6.54,13.54,12.81,19.72,19.73a23,23,0,0,1,6.23,18.53L318.6,242c0.49-1.34.88-2.75,1.5-4,10.24-21.29,20.78-42.44,30.62-63.91,3-6.59,4.16-14,6.46-22.18,6.41,2.22,14.39,4.07,21.52,7.63,29,14.52,50.6,36.18,59.85,67.94,5.41,18.59,3.57,37-7,53.83-5.09,8.09-13.16,12.49-21.8,15.87-16.52,6.46-33.85,6.77-51.21,6.35-9-.22-18-0.95-26.94-1.6a25,25,0,0,1-22.15-33.05c2.43-7.44,8.13-11.89,16.17-11.68,15.48,0.41,31,1.31,46.43,1.81a111.54,111.54,0,0,0,13.46-.62c9.51-.85,12.75-3.42,13.21-12.9,0.29-5.8-.44-12.22-2.77-17.46C388.57,211.36,374.57,200.49,360.43,189.23Z" transform="translate(-84 6)"/><path d="M277.91,156.83c-8.67,24.49-16.92,48.37-25.69,72.06-1.84,5-1.31,7.44,4.64,8.89,2.4-4.92,4.92-10.05,7.4-15.2,11.63-24.14,23.13-48.34,34.94-72.39,3.26-6.64,7.55-13,16.15-13,9.72-.06,18,3.75,23.51,11.87,3.43,5,2.87,10.8.26,16.25-6.91,14.4-13.74,28.84-20.83,43.15-6.64,13.4-13.19,26.87-20.48,39.92a81,81,0,0,1-28,29.29c-9.93,6.25-20.2,6.25-30.56,1.79a19.53,19.53,0,0,1-11.32-12.7c-6.27-21.72-7.94-43.37,0-65.24,6.36-17.45,18-29.62,34.45-37.5C267.6,161.49,272.83,159.16,277.91,156.83Z" transform="translate(-84 6)"/><path d="M326,32a47.52,47.52,0,1,1-.62,95c-26.2-.26-46.85-20.89-47.09-47.49C278,53.37,299.94,31.84,326,32Z" transform="translate(-84 6)"/><path class="cls-1" d="M524.68,26.78c-11.17.88-21.6,3.2-31,9.08-1.47.92-3.85,0.84-5.72,0.59-18.54-2.48-33,5.31-40.63,22.6-1.86,4.19-3.58,4.45-7.44,2.51-7.93-4-15.7-8-21.45-15-5.23-6.41-5.08-12,2.28-16.22,9.45-5.39,19.38-10.51,29.74-13.6,14.12-4.22,28.76-7,43.36-9.22a53.34,53.34,0,0,1,20.63,1.24C523.25,11,526.14,17,524.68,26.78Z" transform="translate(-84 6)"/><path class="cls-1" d="M508.61,43.23c13.44-3.64,26.56-3.86,39.63-.18,4.64,1.31,9.86,3,11,8.28,1.29,5.8-3.58,9-7.7,11.74a103.92,103.92,0,0,1-13.66,7.15c-0.94.43-3.23-.06-3.64-0.81-5.85-10.7-14.79-18.25-24.72-24.84A6.53,6.53,0,0,1,508.61,43.23Z" transform="translate(-84 6)"/><path class="cls-1" d="M528.86,87.79c-1.18,2.14-1.9,4.83-3.64,6.33-4.48,3.87-13.85,3.43-19.09.53a26.94,26.94,0,0,0-11.25-3.41A60.23,60.23,0,0,0,478,92.53c-7.43,1.78-13.47-.56-19.08-4.68-1.62-1.19-2.19-3.82-2.75-6.26,24,3.22,47.43,7.22,71.33,4.81Z" transform="translate(-84 6)"/><path class="cls-1" d="M484.5,72.23l-23.76-3.78c3.33-4.18,12.42-6.91,18.55-4.74,2.58,0.91,4.1,4.8,6.1,7.34Z" transform="translate(-84 6)"/><path class="cls-1" d="M455.92,121.59c5.47-.8,10.1-1.73,15,1.3C465.39,126.79,459.54,126.35,455.92,121.59Z" transform="translate(-84 6)"/></svg>